<?xml version="1.0" encoding="utf-8"?>
<!-- Generator: Adobe Illustrator 19.2.0, SVG Export Plug-In . SVG Version: 6.00 Build 0)  -->
<svg version="1.1" id="Layer_1" xmlns="http://www.w3.org/2000/svg" xmlns:xlink="http://www.w3.org/1999/xlink" x="0px" y="0px"
	 viewBox="0 0 569.2 147.4" style="enable-background:new 0 0 569.2 147.4;" xml:space="preserve">
<style type="text/css">
	.st0{fill:#EE3524;}
	.st1{fill:#F8971D;}
	.st2{fill:#56A0D3;}
	.st3{fill:#003C6F;}
	.st4{fill:#8A8C8E;}
	.st5{fill:#FFFFFF;}
</style>
<title>2018-ALC-Logo-Full-Color-Triptych</title>
<rect y="93.4" class="st0" width="110.1" height="11.8"/>
<rect x="110.1" y="93.4" class="st1" width="110.1" height="11.8"/>
<rect x="220.1" y="93.4" class="st2" width="110.1" height="11.8"/>
<rect x="330.2" y="93.4" class="st3" width="110.1" height="11.8"/>
<rect x="440.3" y="93.4" class="st4" width="110.1" height="11.8"/>
<path class="st0" d="M187,127.1c0-0.3,0.3-0.6,0.6-0.6h12.1c0.3,0,0.6,0.3,0.6,0.6v3.2c0,0.3-0.3,0.6-0.6,0.6h-8.1v3.6h6.7
	c0.3,0,0.5,0.3,0.6,0.6v3.2c0,0.3-0.2,0.6-0.6,0.6h-6.7v4h8.1c0.3,0,0.6,0.2,0.6,0.5c0,0,0,0,0,0v3.2c0,0.3-0.2,0.6-0.5,0.6
	c0,0,0,0,0,0h-12.2c-0.3,0-0.6-0.2-0.6-0.5c0,0,0,0,0,0L187,127.1L187,127.1z"/>
<path class="st0" d="M207.8,126.7c0-0.3,0.3-0.5,0.6-0.5h0.7l11.7,11.3l0,0v-10.4c0-0.3,0.3-0.6,0.6-0.6h3.6c0.3,0,0.5,0.3,0.6,0.6
	v19.8c0,0.3-0.3,0.5-0.6,0.5h-0.5c-0.1,0-0.3-0.1-0.4-0.1l-11.6-11.7l0,0v11c0,0.3-0.3,0.6-0.6,0.6h-3.5c-0.3,0-0.6-0.3-0.6-0.6
	L207.8,126.7z"/>
<path class="st0" d="M234.2,127.1c0-0.3,0.2-0.5,0.5-0.6h7.2c5.7-0.2,10.4,4.3,10.6,10s-4.3,10.4-10,10.6c-0.2,0-0.4,0-0.6,0h-7.2
	c-0.3,0-0.5-0.3-0.5-0.6V127.1z M241.6,142.7c3.3-0.4,5.6-3.5,5.1-6.8c-0.4-2.7-2.5-4.8-5.1-5.1h-2.8v11.9H241.6z"/>
<path class="st0" d="M266.4,146.3l9.2-19.8c0.1-0.2,0.3-0.3,0.5-0.3h0.3c0.2,0,0.4,0.1,0.5,0.3l9.2,19.8c0.1,0.3,0,0.6-0.2,0.7
	c-0.1,0-0.2,0.1-0.3,0.1h-3.3c-0.5,0-0.9-0.3-1-0.7l-1.1-2.3h-8l-1.1,2.4c-0.2,0.4-0.6,0.7-1,0.7h-3.2c-0.3,0-0.5-0.2-0.6-0.5
	C266.4,146.5,266.4,146.4,266.4,146.3 M278.5,140l-2.2-4.8l0,0L274,140L278.5,140L278.5,140z"/>
<path class="st0" d="M292.7,126.5h3.5c0.3,0,0.6,0.3,0.6,0.6v19.4c0,0.3-0.3,0.6-0.6,0.6h-3.5c-0.3,0-0.6-0.3-0.6-0.6v-19.4
	C292.2,126.8,292.4,126.5,292.7,126.5z"/>
<path class="st0" d="M305.2,127.1c0-0.3,0.2-0.5,0.5-0.6h7.2c5.7-0.2,10.4,4.3,10.6,10c0.2,5.7-4.3,10.4-10,10.6c-0.2,0-0.4,0-0.6,0
	h-7.2c-0.3,0-0.5-0.3-0.5-0.6V127.1z M312.6,142.7c3.3-0.4,5.6-3.5,5.1-6.8c-0.4-2.7-2.5-4.8-5.1-5.1h-2.8v11.9H312.6z"/>
<path class="st0" d="M329.1,144.3l1.4-2.4c0.2-0.3,0.7-0.4,1-0.2c1.2,0.9,2.7,1.5,4.2,1.6c1,0.1,1.9-0.7,2-1.7c0,0,0-0.1,0-0.1
	c0-1.2-1-2.2-3-3c-2.5-1-5.7-3-5.7-6.5c0-2.9,2.3-5.9,6.8-5.9c2.3,0.1,4.5,0.8,6.3,2.2c0.3,0.2,0.4,0.6,0.2,0.9l-1.5,2.3
	c-0.2,0.4-0.6,0.5-1,0.4c-0.3-0.1-2.4-1.8-4.2-1.8c-0.9-0.1-1.7,0.6-1.9,1.5c0,1.1,0.9,1.9,3.2,2.9s5.9,2.7,5.9,6.7
	c0,3-2.6,6.1-6.9,6.1c-2.4,0.1-4.8-0.7-6.6-2.3C328.9,144.9,328.8,144.6,329.1,144.3C329,144.3,329,144.3,329.1,144.3"/>
<path class="st5" d="M1.5,144.3l1.4-2.4c0.2-0.3,0.7-0.4,1-0.2c1.2,0.9,2.7,1.4,4.2,1.6c1,0.1,1.9-0.7,2-1.7c0,0,0-0.1,0-0.1
	c0-1.2-1-2.2-3-3c-2.5-1-5.7-3-5.7-6.5c0-2.9,2.3-5.9,6.8-5.9c2.3,0.1,4.5,0.8,6.3,2.2c0.3,0.2,0.4,0.6,0.2,0.9l-1.5,2.3
	c-0.2,0.4-0.6,0.5-1,0.4c-0.3-0.1-2.4-1.8-4.2-1.8c-0.9-0.1-1.7,0.6-1.9,1.5c0,1.1,0.9,1.9,3.2,2.9s5.9,2.7,5.9,6.7
	c0,3-2.6,6.1-6.9,6.1c-2.4,0.1-4.8-0.7-6.6-2.3C1.4,144.9,1.3,144.6,1.5,144.3C1.4,144.3,1.5,144.3,1.5,144.3"/>
<path class="st5" d="M22.2,127.1c0-0.3,0.3-0.6,0.6-0.6H35c0.3,0,0.6,0.3,0.6,0.6v3.2c0,0.3-0.2,0.6-0.5,0.6c0,0,0,0,0,0h-8.2v4.2
	h6.7c0.3,0,0.5,0.3,0.6,0.6v3.2c0,0.3-0.3,0.5-0.6,0.6h-6.7v7.1c0,0.3-0.3,0.5-0.6,0.6h-3.5c-0.3,0-0.6-0.2-0.6-0.6V127.1z"/>
<path class="st5" d="M57.2,130.8H53c-0.3,0-0.6-0.3-0.6-0.6v-3.2c0-0.3,0.3-0.6,0.6-0.6h13c0.3,0,0.6,0.3,0.6,0.6v3.2
	c0,0.3-0.3,0.6-0.6,0.6h-4.2v15.7c0,0.3-0.3,0.5-0.6,0.6h-3.5c-0.3,0-0.5-0.2-0.6-0.6C57.3,146.5,57.3,130.8,57.2,130.8z"/>
<path class="st5" d="M81.3,126.2c5.8,0,10.6,4.7,10.6,10.5c0,5.8-4.7,10.6-10.5,10.6c-5.8,0-10.6-4.7-10.6-10.5
	C70.7,131,75.4,126.3,81.3,126.2C81.2,126.2,81.3,126.2,81.3,126.2 M81.3,142.7c3.2,0,5.9-2.6,5.9-5.8c0-3.2-2.6-5.9-5.8-5.9
	c-3.2,0-5.9,2.6-5.9,5.8c0,0,0,0,0,0.1C75.5,140,78.1,142.6,81.3,142.7"/>
<path class="st5" d="M108.6,127.1c0-0.3,0.3-0.6,0.6-0.6h3.5c0.3,0,0.5,0.3,0.6,0.6v15.7h7c0.3,0,0.6,0.2,0.6,0.5c0,0,0,0,0,0v3.2
	c0,0.3-0.3,0.6-0.6,0.6h-11c-0.3,0-0.6-0.2-0.6-0.6L108.6,127.1L108.6,127.1z"/>
<path class="st5" d="M125.6,146.3l9.2-19.8c0.1-0.2,0.3-0.3,0.5-0.3h0.3c0.2,0,0.4,0.1,0.5,0.3l9.2,19.8c0.1,0.3,0,0.6-0.2,0.7
	c-0.1,0-0.2,0.1-0.3,0.1h-3.3c-0.5,0-0.9-0.3-1-0.7l-1.1-2.3h-8l-1.1,2.4c-0.2,0.4-0.6,0.7-1.1,0.7h-3.2c-0.3,0-0.5-0.2-0.6-0.5
	C125.6,146.5,125.6,146.4,125.6,146.3 M137.7,140l-2.2-4.8l0,0l-2.2,4.8H137.7L137.7,140z"/>
<path class="st5" d="M161.8,136.7c0-2.1,1.6-3.8,3.7-3.8c2.1-0.1,3.9,1.5,4,3.6s-1.5,3.9-3.6,4c-0.1,0-0.3,0-0.4,0
	C163.5,140.4,161.8,138.8,161.8,136.7"/>
<path class="st5" d="M358.2,136.7c0-2.1,1.6-3.8,3.7-3.8s3.8,1.6,3.8,3.7c0,2.1-1.6,3.8-3.7,3.8c0,0-0.1,0-0.1,0
	C359.8,140.4,358.2,138.8,358.2,136.7"/>
<path class="st5" d="M382.4,143.9l1.9-1.8c0.2-0.2,0.5-0.2,0.7-0.1c1,0.7,2.2,1.2,3.5,1.4c1.5,0,2.8-1.1,2.8-2.6c0,0,0-0.1,0-0.1
	c0-1.5-1.2-2.8-2.7-2.9c-0.1,0-0.2,0-0.3,0h-4.5c-0.5,0-0.9-0.5-0.9-1v-9.1c0-0.3,0.3-0.6,0.6-0.6h9.5c0.3,0,0.6,0.2,0.6,0.6v2.6
	c0,0.3-0.3,0.6-0.6,0.6h-6v3.1h2.1c3.5-0.2,6.5,2.6,6.7,6.1c0,0.2,0,0.4,0,0.6c-0.2,3.9-3.4,6.9-7.2,6.7c-2.2,0-4.3-0.8-5.8-2.4
	C382.1,144.5,382.1,144.3,382.4,143.9"/>
<path class="st5" d="M399.9,142.4v-3.1l10.2-12.3c0.1-0.1,0.3-0.2,0.4-0.2h2.1c0.3,0,0.6,0.3,0.6,0.6v12h2.3c0.3,0,0.5,0.2,0.6,0.5
	c0,0,0,0,0,0v2.4c0,0.3-0.2,0.6-0.5,0.6c0,0,0,0,0,0h-2.3v3.6c0,0.3-0.3,0.5-0.6,0.6h-3.1c-0.3,0-0.5-0.2-0.6-0.6v-3.6h-8.6
	C400.1,142.9,399.8,142.6,399.9,142.4 M409.1,139.2v-5.4l-4.7,5.5L409.1,139.2L409.1,139.2z"/>
<path class="st5" d="M422.2,143.9l1.9-1.8c0.2-0.2,0.5-0.2,0.7-0.1c1,0.7,2.2,1.2,3.5,1.4c1.5,0,2.7-1.1,2.8-2.6c0-0.1,0-0.1,0-0.2
	c0-1.5-1.2-2.8-2.7-2.9c-0.1,0-0.2,0-0.3,0h-4.5c-0.5,0-0.9-0.5-0.9-1v-9.1c0-0.3,0.3-0.6,0.6-0.6h9.5c0.3,0,0.6,0.2,0.6,0.6v2.6
	c0,0.3-0.3,0.6-0.6,0.6h-6v3.1h2.1c3.5-0.2,6.5,2.6,6.7,6.1c0,0.2,0,0.4,0,0.6c-0.2,3.9-3.4,6.9-7.2,6.7c-2.2,0-4.3-0.8-5.8-2.4
	C421.9,144.5,421.9,144.3,422.2,143.9"/>
<path class="st5" d="M454.6,126.7c0-0.3,0.3-0.5,0.5-0.5h0.5c0.2,0,0.4,0.1,0.5,0.3l6.8,12.7h0.1l6.8-12.7c0.1-0.2,0.3-0.3,0.5-0.3
	h0.5c0.3,0,0.5,0.2,0.5,0.5l3.3,19.7c0.1,0.3-0.1,0.6-0.4,0.6c0,0-0.1,0-0.1,0h-3.5c-0.3,0-0.5-0.2-0.6-0.5l-1.3-9.1h-0.1l-4.9,9.5
	c-0.1,0.2-0.3,0.3-0.5,0.3h-0.5c-0.2,0-0.4-0.1-0.5-0.3l-5-9.5h-0.1l-1.3,9.1c0,0.3-0.3,0.5-0.6,0.5h-3.5c-0.3,0-0.6-0.2-0.6-0.5
	c0,0,0-0.1,0-0.1L454.6,126.7z"/>
<path class="st5" d="M482,127.1c0-0.3,0.3-0.5,0.6-0.6h3.5c0.3,0,0.5,0.3,0.6,0.6v19.4c0,0.3-0.3,0.5-0.6,0.6h-3.5
	c-0.3,0-0.5-0.2-0.6-0.6V127.1z"/>
<path class="st5" d="M495.4,127.1c0-0.3,0.3-0.6,0.6-0.6h3.5c0.3,0,0.6,0.3,0.6,0.6v15.7h7c0.3,0,0.6,0.2,0.6,0.5c0,0,0,0,0,0v3.2
	c0,0.3-0.2,0.6-0.5,0.6c0,0,0,0,0,0h-11c-0.3,0-0.6-0.2-0.6-0.6L495.4,127.1L495.4,127.1z"/>
<path class="st5" d="M514.1,127.1c0-0.3,0.3-0.6,0.6-0.6h12.1c0.3,0,0.6,0.3,0.6,0.6v3.2c0,0.3-0.3,0.6-0.6,0.6h-8.1v3.6h6.7
	c0.3,0,0.5,0.3,0.6,0.6v3.2c0,0.3-0.3,0.6-0.6,0.6h-6.7v4h8.1c0.3,0,0.6,0.2,0.6,0.5c0,0,0,0,0,0v3.2c0,0.3-0.3,0.6-0.6,0.6h-12.2
	c-0.3,0-0.6-0.2-0.6-0.5c0,0,0,0,0,0L514.1,127.1L514.1,127.1z"/>
<path class="st5" d="M533.8,144.3l1.4-2.4c0.2-0.3,0.7-0.4,1-0.2c1.2,0.9,2.7,1.5,4.2,1.6c1,0.1,1.9-0.7,2-1.7c0,0,0-0.1,0-0.1
	c0-1.2-1-2.2-3-3c-2.5-1-5.7-3-5.7-6.5c0-2.9,2.3-5.9,6.8-5.9c2.3,0.1,4.5,0.8,6.3,2.2c0.3,0.2,0.4,0.6,0.2,0.9l-1.5,2.3
	c-0.2,0.4-0.6,0.5-1,0.4c-0.3-0.1-2.4-1.8-4.2-1.8c-0.9-0.1-1.7,0.6-1.8,1.5c0,1.1,0.9,1.9,3.2,2.9s5.9,2.7,5.9,6.7
	c0,3-2.6,6.1-6.9,6.1c-2.4,0.1-4.8-0.7-6.6-2.3C533.6,144.9,533.5,144.6,533.8,144.3C533.7,144.3,533.7,144.3,533.8,144.3"/>
<path class="st5" d="M24.2,11.8h19.7l23.2,60.2H49.5L45,59.2H22.4l-4.8,12.9H1.3L24.2,11.8z M34.1,24.3h-0.2l-7.8,23.6h15.1
	L34.1,24.3z"/>
<rect x="70.8" y="11.8" class="st5" width="16.1" height="60.3"/>
<path class="st5" d="M95.4,11.8h21.9c21,0,35.7,6.6,35.7,29.9c0,22.5-15.1,30.4-35.7,30.4H95.4V11.8z M111.5,60.1h6.2
	c12,0,18.7-6.2,18.7-18.2s-7-18.2-18.7-18.2h-6.2V60.1z"/>
<path class="st5" d="M157.6,57.2c5.1,2.7,10.8,4,16.6,4c5.1,0,9.9-1,9.9-5.9c0-11.2-28.5-4.1-28.5-26.1c0-14.5,14.2-18.5,26.2-18.5
	c5.3-0.1,10.5,0.7,15.5,2.2l-1,12.4c-4.2-1.9-8.8-2.8-13.4-2.8c-4.1,0-10.8,0.4-10.8,5.6c0,9.8,28.5,3.2,28.5,25
	c0,15.6-13.1,19.9-26.5,19.9c-6.1,0-12.2-0.9-18-2.6L157.6,57.2z"/>
<polygon class="st5" points="223,0 230.6,0 208.5,82.4 200.9,82.4 "/>
<polygon class="st5" points="233.6,11.8 242.3,11.8 242.3,64.5 267.5,64.5 267.5,72.1 233.6,72.1 "/>
<path class="st5" d="M284.1,18.2H275V9h9.1L284.1,18.2L284.1,18.2z M275.4,28h8.1v44h-8.1V28z"/>
<path class="st5" d="M300.2,34.6h-10.4V28h10.4V24c0-10.7,2.8-17.7,14.8-17.7c1.8,0,3.6,0.2,5.4,0.5l-0.3,6.6
	c-1.3-0.4-2.6-0.5-3.9-0.5c-7,0-7.9,4.5-7.9,10.4V28H320v6.6h-11.6v37.5h-8.1V34.6z"/>
<path class="st5" d="M358.9,70.2c-3.1,1.1-6.6,2.8-13.9,2.8c-15.6,0-22.8-9.5-22.8-23.8c0-13,8.2-22.3,20.6-22.3
	c14.7,0,19.4,10.7,19.4,24.9h-31.4c-0.1,8,6.2,14.5,14.1,14.7c0.1,0,0.2,0,0.4,0c5.4,0,11.6-2.8,13.6-4.4L358.9,70.2L358.9,70.2z
	 M353.6,45.8c0-6.7-4-12.3-11-12.3c-8,0-11.2,6.6-11.8,12.3H353.6L353.6,45.8z"/>
<path class="st5" d="M412.1,21.7c-3.8-2.2-8.1-3.4-12.4-3.4c-13.9,0-23.1,10-23.1,23.6c0,14.2,10.2,23.6,22.7,23.6
	c4.3,0,10.1-1.1,13.1-2.9l0.5,8.4c-4.6,1.9-10.2,2.2-13.7,2.2c-19.1,0-31.8-12.3-31.8-31.4c0-18.6,13.5-30.9,31.9-30.9
	c4.7-0.1,9.3,0.8,13.6,2.6L412.1,21.7z"/>
<path class="st5" d="M486.7,35.4c-2.8-1.2-5.8-1.8-8.8-1.9c-9.1,0-14.2,8.1-14.2,16.5c0,7.9,4.2,16.5,14.7,16.5
	c3.1,0,6.1-0.9,8.7-2.5l0.6,7.2c-3.2,1.3-6.7,1.9-10.2,1.8c-13.3,0-22.5-10.4-22.5-23.1c0-13.4,9-23,22.5-23c3.4,0,6.7,0.6,9.8,1.7
	L486.7,35.4z"/>
<rect x="496.2" y="7.3" class="st5" width="8.1" height="64.8"/>
<path class="st5" d="M547,70.2c-3.1,1.1-6.7,2.8-13.9,2.8c-15.6,0-22.8-9.5-22.8-23.8c0-13,8.2-22.3,20.6-22.3
	c14.7,0,19.4,10.7,19.4,24.9H519c-0.1,8,6.2,14.5,14.1,14.7c0.1,0,0.2,0,0.4,0c5.3,0,11.6-2.8,13.6-4.4L547,70.2L547,70.2z
	 M541.7,45.8c0-6.7-4-12.3-11-12.3c-8,0-11.2,6.6-11.8,12.3H541.7L541.7,45.8z"/>
<path class="st5" d="M440.4,70.2c-3,8.5-6.2,18.2-16.9,18.2c-1.9,0-3.7-0.2-5.5-0.6l0.5-6.7c1.2,0.4,2.5,0.7,3.8,0.7
	c5,0,7.5-5,8.7-8.1l0,0c0-1-1-3.2-1.5-4.7l-15-41.1h8.9l11.8,36.4h0.2L447.4,28h8.2L440.4,70.2z"/>
<path class="st5" d="M566.1,24.9c-4,4-10.5,4-14.5-0.1c-1.9-1.9-3-4.6-3-7.3c-0.1-2.8,1.1-5.6,3.2-7.5c1.9-1.8,4.4-2.8,7.1-2.8
	c5.7,0,10.3,4.6,10.3,10.3C569.2,20.3,568.1,23,566.1,24.9 M552.8,11.6c-3.3,3.3-3.3,8.7,0,12c3.3,3.3,8.6,3.4,11.9,0.1
	c0,0,0.1-0.1,0.1-0.1c3.3-3.3,3.3-8.7,0-12c-3.2-3.3-8.5-3.4-11.8-0.2C553,11.4,552.9,11.5,552.8,11.6"/>
<path class="st5" d="M554.8,11.5h4.3c2.9,0,4.5,1.2,4.5,3.6c0.1,1.7-1,3.2-2.7,3.4l2.8,5h-2.2l-2.7-4.8h-2.1v4.8h-2L554.8,11.5
	L554.8,11.5z M559.1,17c1.7,0,2.6-0.4,2.6-1.9s-0.9-1.8-2.6-1.8h-2.2V17L559.1,17L559.1,17z"/>
</svg>
